<?xml version="1.0" standalone="no"?>
<!DOCTYPE svg PUBLIC "-//W3C//DTD SVG 20010904//EN"
 "http://www.w3.org/TR/2001/REC-SVG-20010904/DTD/svg10.dtd">
<svg version="1.0" xmlns="http://www.w3.org/2000/svg"
 width="611.000000pt" height="611.000000pt" viewBox="0 0 611.000000 611.000000"
 preserveAspectRatio="xMidYMid meet">
<metadata>
Created by potrace 1.11, written by Peter Selinger 2001-2013
</metadata>
<g transform="translate(0.000000,611.000000) scale(0.100000,-0.100000)"
fill="#000000" stroke="none">
<path d="M2828 5875 c-2 -2 -40 -7 -83 -10 -44 -3 -91 -8 -105 -10 -14 -3 -47
-7 -75 -11 -27 -3 -57 -7 -65 -9 -230 -43 -211 -40 -290 -60 -192 -48 -438
-137 -620 -222 -135 -64 -338 -177 -395 -220 -6 -5 -39 -28 -75 -53 -477 -327
-847 -835 -974 -1335 -49 -197 -60 -287 -60 -510 0 -216 11 -310 59 -496 68
-263 199 -538 357 -746 26 -35 48 -68 48 -73 0 -4 4 -10 8 -12 5 -1 36 -35 70
-75 125 -145 310 -313 484 -436 59 -43 88 -70 91 -87 12 -58 4 -253 -13 -318
-76 -286 -284 -531 -622 -733 -46 -27 -89 -49 -95 -49 -7 0 -13 -10 -14 -22
-1 -25 -1 -116 0 -136 1 -9 25 -11 99 -7 146 7 282 16 327 21 22 2 65 7 95 10
30 2 66 6 80 9 14 2 45 7 70 10 37 5 202 37 260 50 436 97 860 321 1175 619
l60 57 55 -6 c30 -3 84 -8 120 -12 86 -9 493 -9 595 0 167 15 251 26 385 51
441 82 879 261 1250 510 90 60 69 44 215 164 259 214 445 436 609 725 93 165
194 445 221 612 26 161 32 246 29 405 -1 96 -5 189 -8 205 -3 17 -7 48 -10 70
-7 54 -15 92 -28 140 -5 22 -12 51 -15 65 -10 60 -78 244 -129 350 -147 307
-346 566 -617 804 -37 33 -87 73 -110 90 -23 17 -44 33 -47 36 -10 12 -137 98
-220 150 -319 199 -775 374 -1145 439 -33 6 -71 13 -84 16 -12 2 -42 6 -65 9
-22 3 -63 8 -91 11 -27 3 -68 8 -90 11 -48 7 -611 14 -617 9z m569 -759 c28
-3 64 -7 80 -10 15 -2 62 -10 103 -16 337 -53 730 -202 985 -372 458 -307 727
-697 782 -1133 9 -64 9 -234 1 -306 -15 -127 -76 -318 -141 -439 -60 -113 -60
-111 -96 -165 -80 -115 -258 -306 -371 -396 -207 -165 -571 -352 -807 -415
-151 -40 -291 -73 -325 -78 -24 -4 -72 -11 -108 -16 -119 -18 -243 -25 -425
-24 -167 1 -331 11 -347 20 -11 7 -160 6 -203 -1 -182 -29 -312 -97 -464 -244
-47 -44 -89 -81 -93 -81 -4 0 -8 17 -9 38 0 20 -2 44 -4 52 -1 8 -6 45 -9 82
-14 130 -55 239 -136 358 -50 73 -115 133 -230 215 -328 233 -521 464 -661
790 -50 117 -82 289 -82 445 -1 113 8 233 17 249 2 3 7 22 10 41 10 67 57 195
110 305 167 341 488 643 890 835 186 89 371 160 486 185 8 1 33 8 55 13 22 6
51 13 65 16 14 2 36 7 50 10 27 6 63 13 120 22 19 3 46 7 60 10 14 2 59 7 100
10 41 3 77 8 78 9 6 5 464 -2 519 -9z"/>
<path d="M2641 4595 c-39 -33 -75 -109 -101 -210 -20 -76 -23 -96 -38 -210
l-7 -50 -23 54 c-13 29 -25 61 -27 70 -26 124 -63 205 -99 215 -82 22 -132
-28 -169 -169 -9 -33 -21 -80 -28 -105 -6 -25 -15 -49 -19 -53 -6 -7 -32 104
-55 238 -4 18 -10 49 -20 95 -2 8 -4 18 -4 23 -1 4 -14 7 -30 7 -33 0 -33 19
-1 -185 33 -205 54 -291 79 -324 37 -48 66 -5 106 156 43 173 80 263 108 263
7 0 32 -53 57 -122 24 -68 53 -143 64 -168 11 -25 19 -48 18 -52 -2 -10 54
-68 67 -68 17 0 37 49 55 130 17 81 19 89 41 230 20 122 41 185 69 207 12 10
25 26 29 36 10 27 -36 22 -72 -8z"/>
<path d="M2956 4495 c-79 -42 -175 -204 -210 -353 -11 -48 -11 -66 -1 -96 7
-21 15 -39 17 -40 60 -45 104 -47 173 -7 82 48 135 109 140 164 4 29 -15 19
-76 -42 -85 -85 -158 -114 -165 -67 -2 11 26 64 64 120 86 131 115 201 125
311 3 26 -28 30 -67 10z m0 -90 c-10 -50 -70 -165 -111 -211 l-34 -39 11 35
c36 117 108 250 134 250 3 0 3 -16 0 -35z"/>
<path d="M3406 4193 c-1 -1 -16 -3 -34 -5 -18 -1 -44 -12 -58 -23 l-26 -20 2
-780 c1 -725 2 -782 18 -815 20 -38 88 -80 132 -80 14 0 46 10 70 23 43 21 45
24 48 70 3 40 0 49 -15 53 -47 13 -47 3 -49 789 -1 407 -5 749 -7 760 -3 11
-6 23 -6 27 -1 6 -69 7 -75 1z"/>
<path d="M3850 4192 c-14 -1 -38 -13 -54 -25 l-27 -22 0 -820 c1 -451 1 -823
1 -827 0 -5 39 -6 87 -4 122 5 118 -2 118 228 0 163 2 185 15 178 26 -14 224
-231 310 -341 64 -81 130 -138 172 -150 51 -13 125 -4 158 21 l25 19 -30 33
c-17 18 -60 69 -95 113 -63 78 -70 87 -99 121 -7 9 -42 50 -78 92 -35 43 -93
107 -129 143 l-64 66 49 26 c74 41 139 99 187 168 53 75 74 136 75 214 2 84
-7 124 -39 170 -38 55 -83 78 -155 80 -57 2 -180 -19 -202 -34 -5 -4 -30 -19
-55 -33 l-45 -26 -1 272 c0 188 -4 282 -13 308 -13 40 -20 42 -111 30z m371
-701 c19 -15 24 -30 25 -73 3 -72 -30 -142 -99 -209 -47 -46 -142 -109 -163
-109 -5 0 -9 61 -9 137 l0 136 42 47 c72 80 156 110 204 71z"/>
<path d="M1798 3927 c-29 -5 -61 -21 -84 -41 -36 -31 -36 -32 -41 -126 -6
-137 -5 -133 -49 -149 -114 -39 -124 -47 -124 -96 0 -30 4 -34 33 -41 36 -8
62 -12 92 -13 20 -1 20 -8 19 -328 0 -345 5 -424 36 -507 22 -59 80 -123 129
-143 33 -14 141 -19 191 -8 73 15 120 40 135 71 15 33 20 90 9 118 -5 13 -10
13 -27 4 -69 -37 -175 -42 -209 -11 -17 16 -41 82 -53 148 -7 39 -7 647 0 654
3 3 59 6 124 7 65 1 127 7 139 13 25 13 39 53 38 106 l-1 40 -150 1 -150 0 0
151 c0 83 -2 153 -5 155 -3 2 -26 0 -52 -5z"/>
<path d="M2635 3652 c-101 -12 -267 -78 -286 -114 -5 -10 -7 -35 -3 -56 6 -36
30 -92 39 -92 2 0 41 14 87 30 112 41 212 58 266 47 62 -12 75 -43 77 -183 l2
-111 -68 2 c-134 5 -287 -42 -365 -112 -84 -76 -116 -151 -116 -275 0 -71 4
-96 25 -141 55 -121 145 -172 297 -170 91 2 138 16 187 57 l29 25 25 -22 c70
-65 134 -77 206 -40 36 19 38 23 41 70 3 47 1 51 -22 57 -17 4 -26 15 -32 38
-4 18 -7 204 -8 413 -1 372 -1 381 -24 437 -40 99 -107 138 -242 142 -47 1
-98 0 -115 -2z m176 -625 c3 -4 5 -72 4 -150 -1 -105 -5 -148 -16 -165 -21
-33 -92 -64 -162 -69 -54 -4 -67 -2 -97 19 -46 31 -61 65 -62 142 -1 66 24
134 60 164 59 48 250 89 273 59z"/>
</g>
</svg>
